<?xml version="1.0" encoding="utf-8"?>
<!-- Generator: Adobe Illustrator 26.5.0, SVG Export Plug-In . SVG Version: 6.00 Build 0)  -->
<svg version="1.1" id="Layer_1" xmlns="http://www.w3.org/2000/svg" xmlns:xlink="http://www.w3.org/1999/xlink" x="0px" y="0px"
	 viewBox="0 0 485.8 483.5" style="enable-background:new 0 0 485.8 483.5;" xml:space="preserve">
<style type="text/css">
	.st0{fill:#E6E6E6;}
	.st1{fill:#FFFFFF;}
	.st2{fill:#F2F2F2;}
	.st3{fill:#CCCCCC;}
	.st4{fill:#FFB8B8;}
	.st5{fill:#2F2E41;}
	.st6{fill:#6C63FF;}
	.st7{opacity:0.2;enable-background:new    ;}
</style>
<path class="st0" d="M153.9,118.3c-5.2-34.1-5.2-68.8,0-102.9c0.9-5.6,5.8-9.7,11.4-9.8h79.7c3.5,0,6.9,1.6,9.1,4.4
	c2.2,2.8,3,6.5,2.2,10c-7.4,30.8-7.3,62.9,0,93.6c0.8,3.5,0,7.2-2.2,10l0,0c-2.2,2.8-5.5,4.4-9.1,4.4h-79.7
	C159.7,128.1,154.8,124,153.9,118.3z"/>
<path class="st1" d="M165.4,11.7c-2.7,0-5.1,2-5.5,4.7c-5.2,33.5-5.2,67.6,0,101c0.4,2.7,2.8,4.7,5.5,4.7h79.7
	c1.7,0,3.3-0.8,4.4-2.1l0,0c1.1-1.4,1.5-3.2,1.1-4.9c-7.6-31.7-7.6-64.7,0-96.4c0.4-1.7,0-3.5-1.1-4.9c-1-1.3-2.7-2.1-4.4-2.1H165.4
	z"/>
<path class="st0" d="M176.8,34.6v-2.3c0-3.3,2.7-6,6-6h41.8c3.3,0,6,2.7,6,6v2.3c0,3.3-2.7,6-6,6h-41.8
	C179.5,40.6,176.8,37.9,176.8,34.6z"/>
<path class="st0" d="M176.8,64.2v-2.3c0-3.3,2.7-6,6-6h41.8c3.3,0,6,2.7,6,6v2.3c0,3.3-2.7,6-6,6h-41.8
	C179.5,70.2,176.8,67.5,176.8,64.2z"/>
<path class="st0" d="M176.8,93.8v-2.3c0-3.3,2.7-6,6-6h41.8c3.3,0,6,2.7,6,6v2.3c0,3.3-2.7,6-6,6h-41.8
	C179.5,99.8,176.8,97.1,176.8,93.8z"/>
<path class="st0" d="M3.9,194.3c-5.2-34.1-5.2-68.8,0-102.9c0.9-5.6,5.8-9.7,11.4-9.8h79.7c3.5,0,6.9,1.6,9.1,4.4
	c2.2,2.8,3,6.5,2.2,10c-7.4,30.8-7.3,62.9,0,93.6c0.8,3.5,0,7.2-2.2,10l0,0c-2.2,2.8-5.5,4.4-9.1,4.4H15.4
	C9.7,204.1,4.8,200,3.9,194.3z"/>
<path class="st1" d="M15.4,87.7c-2.7,0-5.1,2-5.5,4.7c-5.2,33.5-5.2,67.6,0,101c0.4,2.7,2.8,4.7,5.5,4.7h79.7c1.7,0,3.3-0.8,4.4-2.1
	l0,0c1.1-1.4,1.5-3.2,1.1-4.9c-7.6-31.7-7.6-64.7,0-96.4c0.4-1.7,0-3.5-1.1-4.9c-1-1.3-2.7-2.1-4.4-2.1H15.4z"/>
<path class="st2" d="M162.4,280.4c-5.3-34.1-5.3-68.9,0-103c1-5.9,6-10.2,11.9-10.2h79.7c3.7,0,7.2,1.7,9.5,4.6
	c2.3,2.9,3.2,6.8,2.3,10.4c-7.3,30.7-7.3,62.7,0,93.4c0.9,3.6,0,7.5-2.3,10.4c-2.3,2.9-5.8,4.6-9.5,4.6h-79.7
	C168.4,290.6,163.4,286.3,162.4,280.4z"/>
<path class="st0" d="M26.8,125.6v-2.3c0-3.3,2.7-6,6-6h41.8c3.3,0,6,2.7,6,6v2.3c0,3.3-2.7,6-6,6H32.8
	C29.5,131.6,26.8,128.9,26.8,125.6z"/>
<path class="st0" d="M26.8,155.2v-2.3c0-3.3,2.7-6,6-6h41.8c3.3,0,6,2.7,6,6v2.3c0,3.3-2.7,6-6,6H32.8
	C29.5,161.2,26.8,158.5,26.8,155.2z"/>
<circle class="st1" cx="214" cy="228.5" r="23"/>
<path class="st0" d="M200,228.5c0,1.7,1.3,3,3,3h8v8c0,1.7,1.3,3,3,3s3-1.3,3-3v-8h8c1.7,0,3-1.3,3-3s-1.3-3-3-3h-8v-8
	c0-1.7-1.3-3-3-3s-3,1.3-3,3v8h-8C201.4,225.5,200,226.8,200,228.5z"/>
<path class="st3" d="M180.5,12.5v-8c0-2.5,2-4.5,4.5-4.5l42,0c2.5,0,4.5,2,4.5,4.5v8c0,2.5-2,4.5-4.5,4.5h-42
	C182.5,17,180.5,15,180.5,12.5z"/>
<path class="st3" d="M28.5,89.5v-8c0-2.5,2-4.5,4.5-4.5h42c2.5,0,4.5,2,4.5,4.5v8c0,2.5-2,4.5-4.5,4.5H33C30.5,94,28.5,92,28.5,89.5
	z"/>
<polygon class="st4" points="397.2,423.8 381.1,423.8 385,471.1 397.2,471.1 "/>
<path class="st5" d="M400.4,482.9l-39.5,0v-0.5c0,0,0,0,0,0c0-8.5,6.9-15.4,15.4-15.4h0l24.1,0L400.4,482.9z"/>
<polygon class="st4" points="463.2,423.8 445.1,423.8 451,471.1 463.2,471.1 "/>
<path class="st5" d="M466.4,482.9l-39.5,0v-0.5c0,0,0,0,0,0c0-8.5,6.9-15.4,15.4-15.4h0l24.1,0L466.4,482.9z"/>
<path class="st5" d="M460.8,456.1l-10.6-0.6c-2.4-0.1-4.4-2-4.7-4.4L432.6,336c0-0.3-0.2-0.6-0.5-0.7c-0.5-0.3-1.1-0.2-1.4,0.3
	l-16.5,26.1c-2.9,4.6-4.8,9.8-5.5,15.2l-8.4,69.1c-0.3,2.5-2.5,4.3-5,4.3h-11.7c-2.7,0-4.9-2.1-5-4.8l-2.7-62.6
	c-0.4-8.8,0.8-17.5,3.5-25.8l21.5-64.6l69.8-17.5l-4.9,176.2c0,1.3-0.6,2.6-1.6,3.5l0,0c-0.9,0.8-2.1,1.3-3.4,1.3
	C461,456.1,460.9,456.1,460.8,456.1z"/>
<circle class="st4" cx="412.8" cy="136.4" r="24.6"/>
<path class="st6" d="M401.4,299.7c-2.8,0-5-2.3-4.9-5.1l1.3-98.3c0.1-9.7,4.8-18.8,12.6-24.5c1-0.7,1.9-1.4,2.9-2
	c8.5-5.4,19.1-6.1,28.3-2.1c9.4,4.1,16.2,12.5,18.2,22.5l15.9,85.7c0.5,2.6-1.1,5.2-3.7,5.8l-69.3,17.8h0
	C402.3,299.6,401.9,299.7,401.4,299.7C401.5,299.7,401.5,299.7,401.4,299.7z"/>
<path class="st4" d="M453,304.5c-5.2-1.9-7.9-7.8-6-13l0.4-32.5l16.3-8.8l-3.1,35.6c0.5,0.2,1.1,0.5,1.5,0.9c4.6,3.1,5.8,9.4,2.7,14
	C462.3,304.6,457.4,306.2,453,304.5z"/>
<path class="st6" d="M457.1,280.8l-8-3c-2.2-0.8-3.6-2.9-3.6-5.2l0.3-32l-23.9-53.5c-1.1-4-0.5-8.3,1.7-11.9
	c2.1-3.5,5.5-6.1,9.5-7.1c8.2-2.1,16.6,2.8,18.8,11l16.8,32.9c5.2,10.2,6.6,22,3.8,33.1l-8,31.9c-0.5,2-2,3.5-4,4
	c-0.4,0.1-0.9,0.2-1.4,0.2C458.4,281.1,457.8,281,457.1,280.8z"/>
<path class="st4" d="M344.5,287.6c-4.6,0.6-9.1-2.1-10.7-6.5c-1.9-5.2,0.7-11.1,5.9-13l24.9-20.8l17.4,6.6l-29,20.9
	c0.2,0.6,0.3,1.1,0.4,1.7C354,282,350,287,344.5,287.6L344.5,287.6z"/>
<path class="st6" d="M356.5,271.3c-0.9-0.6-1.6-1.5-2-2.6l-3-8c-0.8-2.2-0.2-4.6,1.6-6.1l24.5-20.7l24.9-53c2.4-3.4,6-5.8,10.1-6.5
	c4-0.7,8.2,0.2,11.6,2.5c6.9,4.9,8.7,14.4,3.9,21.4l-14,34.2c-4.3,10.6-12.4,19.3-22.7,24.5l-29.4,14.7c-0.8,0.4-1.6,0.6-2.5,0.6
	C358.6,272.3,357.5,272,356.5,271.3z"/>
<path class="st5" d="M422.8,159c11.8-4.8,19.1-17.1,16.8-29.6c-0.3-1.4-0.6-2.7-1.1-4c-4-10.7-14-18-25.4-18.6
	c-6.8-0.2-13.4,2-19.8,4.2c-3.1,1-6.3,2.1-8.5,4.7c-0.6,0.7-1.1,1.5-1.5,2.4c-2,5.4,3.1,9.5,8,10.5c4.2,0.9,8.7,0.3,12.9,1.2
	s8.4,4.4,8,8.7c0.7-2.3,4.2-2.5,5.8-0.7s1.3,4.6,0.1,6.6s-1.1,2-2.9,5.1c-1.2,2.1,1.5,12.5,2.8,11.9L422.8,159z"/>
<polygon class="st7" points="442.9,241.3 428.9,205.3 446.4,240.4 446.9,273.3 "/>
<path class="st0" d="M274.5,351.4c-17.9-29.5-31.2-61.5-39.5-95c-1.3-5.5,1.6-11.2,6.8-13.4l73.6-30.6c3.3-1.4,7-1.2,10.1,0.6
	c3.1,1.7,5.3,4.8,5.8,8.4c5,31.2,17.3,60.9,35.9,86.5c2.1,2.9,2.8,6.6,1.8,10l0,0c-0.9,3.4-3.4,6.2-6.7,7.5L288.8,356
	C283.5,358.1,277.4,356.2,274.5,351.4z"/>
<path class="st1" d="M244.1,248.5c-2.5,1-3.9,3.8-3.3,6.4c8.1,32.9,21.2,64.4,38.8,93.3c1.4,2.3,4.4,3.2,6.9,2.2l73.6-30.6
	c1.6-0.6,2.8-2,3.2-3.6l0,0c0.5-1.7,0.1-3.5-0.9-4.9c-19.2-26.4-31.8-56.9-37-89.1c-0.3-1.7-1.3-3.2-2.8-4.1
	c-1.5-0.8-3.3-0.9-4.8-0.3L244.1,248.5z"/>
<path class="st6" d="M270.7,282.8l-0.9-2.2c-1.3-3.1,0.2-6.6,3.2-7.8l38.6-16.1c3.1-1.3,6.6,0.2,7.8,3.2l0.9,2.2
	c1.3,3.1-0.2,6.6-3.2,7.8L278.5,286C275.5,287.3,272,285.9,270.7,282.8z"/>
<path class="st6" d="M282.1,310.2l-0.9-2.2c-1.3-3.1,0.2-6.6,3.2-7.8l38.6-16.1c3.1-1.3,6.6,0.2,7.8,3.2l0.9,2.2
	c1.3,3.1-0.2,6.6-3.2,7.8l-38.6,16.1C286.8,314.7,283.3,313.2,282.1,310.2z"/>
<path class="st3" d="M258.9,244.8l-3-7.4c-0.9-2.3,0.2-4.9,2.5-5.9l38.9-15.7c2.3-0.9,4.9,0.2,5.9,2.5l3,7.4
	c0.9,2.3-0.2,4.9-2.5,5.9l-38.9,15.7c-0.5,0.2-1.1,0.3-1.7,0.3C261.2,247.6,259.6,246.5,258.9,244.8z"/>
<path class="st3" d="M343.8,482.5c0-0.6,0.4-1,1-1h140c0.6,0,1,0.4,1,1s-0.4,1-1,1h-140C344.3,483.5,343.8,483.1,343.8,482.5z"/>
</svg>
